<?xml version="1.0" encoding="UTF-8"?>
<svg width="40" height="40" viewBox="0 0 40 40" fill="none" xmlns="http://www.w3.org/2000/svg">
  <!-- Fondo circular -->
  <circle cx="20" cy="20" r="20" fill="#2c3e50"/>
  
  <!-- Vehículo 1 (automóvil) -->
  <path d="M28 15h-1.5l-1.5-3H15l-1.5 3H12c-.55 0-1 .45-1 1v1c0 .55.45 1 1 1h.5v1c0 .55.45 1 1 1h1c.55 0 1-.45 1-1v-1h9v1c0 .55.45 1 1 1h1c.55 0 1-.45 1-1v-1h.5c.55 0 1-.45 1-1v-1c0-.55-.45-1-1-1z" fill="#3498db"/>
  
  <!-- Ruedas vehículo 1 -->
  <circle cx="14.5" cy="16" r="1.25" fill="#ecf0f1"/>
  <circle cx="25.5" cy="16" r="1.25" fill="#ecf0f1"/>
  
  <!-- Vehículo 2 (camión) -->
  <path d="M32 23h-1.5l-1-4h-6.5v4h-1c-.55 0-1 .45-1 1v1c0 .55.45 1 1 1h.5v1c0 .55.45 1 1 1h1c.55 0 1-.45 1-1v-1h3v1c0 .55.45 1 1 1h1c.55 0 1-.45 1-1v-1h.5c.55 0 1-.45 1-1v-1c0-.55-.45-1-1-1z" fill="#e74c3c"/>
  
  <!-- Ruedas vehículo 2 -->
  <circle cx="24.5" cy="24" r="1.25" fill="#ecf0f1"/>
  <circle cx="30" cy="24" r="1.25" fill="#ecf0f1"/>
  
  <!-- Vehículo 3 (motocicleta) -->
  <path d="M15 26h-3l-1-1-1 1H8c-.55 0-1 .45-1 1v1c0 .55.45 1 1 1h1c.55 0 1-.45 1-1h3c0 .55.45 1 1 1h1c.55 0 1-.45 1-1v-1c0-.55-.45-1-1-1z" fill="#2ecc71"/>
  
  <!-- Ruedas vehículo 3 -->
  <circle cx="9" cy="27.5" r="1.25" fill="#ecf0f1"/>
  <circle cx="14" cy="27.5" r="1.25" fill="#ecf0f1"/>
</svg> 