<?xml version="1.0" encoding="UTF-8"?>
<svg width="40" height="40" viewBox="0 0 40 40" fill="none" xmlns="http://www.w3.org/2000/svg">
  <!-- Fondo circular -->
  <circle cx="20" cy="20" r="20" fill="#3498db"/>
  
  <!-- Silueta de coche simplificada -->
  <path d="M32 22h-2l-3-6H13l-3 6H8c-1.1 0-2 .9-2 2v2c0 1.1.9 2 2 2h1v2c0 1.1.9 2 2 2h2c1.1 0 2-.9 2-2v-2h12v2c0 1.1.9 2 2 2h2c1.1 0 2-.9 2-2v-2h1c1.1 0 2-.9 2-2v-2c0-1.1-.9-2-2-2z" fill="white"/>
  
  <!-- Ruedas -->
  <circle cx="12" cy="24" r="2.5" fill="#2c3e50"/>
  <circle cx="28" cy="24" r="2.5" fill="#2c3e50"/>
  
  <!-- Ventanas -->
  <path d="M15 16h10v6h-10z" fill="#2c3e50"/>
</svg> 